<?xml version="1.0" encoding="UTF-8" standalone="no"?>
<svg
   xmlns:dc="http://purl.org/dc/elements/1.1/"
   xmlns:cc="http://creativecommons.org/ns#"
   xmlns:rdf="http://www.w3.org/1999/02/22-rdf-syntax-ns#"
   xmlns:svg="http://www.w3.org/2000/svg"
   xmlns="http://www.w3.org/2000/svg"
   xmlns:sodipodi="http://sodipodi.sourceforge.net/DTD/sodipodi-0.dtd"
   xmlns:inkscape="http://www.inkscape.org/namespaces/inkscape"
   version="1.1"
   x="0px"
   y="0px"
   viewBox="0 0 66.350998 111.98845"
   enable-background="new 0 0 100 100"
   xml:space="preserve"
   id="svg3013"
   inkscape:version="0.48.5 r10040"
   width="100%"
   height="100%"
   sodipodi:docname="ferml_plus_therm.svg"><metadata
     id="metadata3039"><rdf:RDF><cc:Work
         rdf:about=""><dc:format>image/svg+xml</dc:format><dc:type
           rdf:resource="http://purl.org/dc/dcmitype/StillImage" /><dc:title></dc:title></cc:Work></rdf:RDF></metadata><defs
     id="defs3037">
 <style
   id="style3013"
   type="text/css">
   
    .fil0 {fill:black}
   
  </style>
  </defs><sodipodi:namedview
     pagecolor="#ffffff"
     bordercolor="#666666"
     borderopacity="1"
     objecttolerance="10"
     gridtolerance="10"
     guidetolerance="10"
     inkscape:pageopacity="0"
     inkscape:pageshadow="2"
     inkscape:window-width="1920"
     inkscape:window-height="1001"
     id="namedview3035"
     showgrid="false"
     inkscape:zoom="3.18"
     inkscape:cx="145.74794"
     inkscape:cy="37.858329"
     inkscape:window-x="-9"
     inkscape:window-y="-9"
     inkscape:window-maximized="1"
     inkscape:current-layer="svg3013"
     fit-margin-top="0"
     fit-margin-left="0"
     fit-margin-right="0"
     fit-margin-bottom="0"
     inkscape:showpageshadow="false"
     showborder="false" /><g
     id="g3015"
     transform="translate(-16.824,15.988454)"
     inkscape:export-filename="C:\Users\andrew\Documents\McBrew\UI\GUIresources\ferm_plus_therm.png"
     inkscape:export-xdpi="600"
     inkscape:export-ydpi="600"><g
       id="g3017"><path
         d="m 26.142,91.98 c 0,2.219 -1.799,4.02 -4.019,4.02 l 0,0 c -2.219,0 -4.019,-1.801 -4.019,-4.02 V 55.97 l 4.019,6.186 v -1.869 l 4.019,6.618 V 91.98 z"
         id="path3019"
         inkscape:connector-curvature="0" /><path
         d="m 81.896,91.98 c 0,2.219 -1.798,4.02 -4.018,4.02 l 0,0 c -2.22,0 -4.019,-1.801 -4.019,-4.02 V 66.76 l 4.019,-4.892 0,0 4.018,-7.926 V 91.98 z"
         id="path3021"
         inkscape:connector-curvature="0" /></g><g
       id="g3023"><path
         d="m 50.105,4.001 c 7.579,0 15.158,1.065 15.158,3.197 v 3.928 c 9.11,1.176 15.913,3.495 15.913,6.958 V 51.958 C 81.176,61.014 50,88.73 50,88.73 50,88.73 18.824,61.014 18.824,51.958 V 18.084 c 0,-3.49 6.909,-5.817 16.123,-6.984 V 7.198 c 0,-2.132 7.579,-3.197 15.158,-3.197 m 0,-2 c -11.385,0 -17.158,1.748 -17.158,5.197 v 2.157 c -10.701,1.571 -16.123,4.505 -16.123,8.73 v 33.874 c 0,1.6 0,6.469 16.15,23.172 7.757,8.023 15.619,15.025 15.697,15.096 L 50,91.406 51.329,90.225 c 0.078,-0.07 7.939,-7.072 15.696,-15.096 16.15,-16.703 16.15,-21.572 16.15,-23.172 V 18.084 c 0,-4.196 -5.352,-7.12 -15.913,-8.7 V 7.198 C 67.263,3.749 61.49,2.001 50.105,2.001 l 0,0 z"
         id="path3025"
         inkscape:connector-curvature="0" /></g><g
       id="g3027"><path
         d="m 22.375,34.005 v 15.894 c 0,8.024 27.625,32.584 27.625,32.584 0,0 27.625,-24.561 27.625,-32.585 V 34.67 c 0,0 -6.373,-6.462 -16.377,-6.462 -10.004,0 -19.941,6.354 -27.389,6.354 -7.448,0 -11.484,-0.557 -11.484,-0.557 z m 11.601,19.742 c -2.219,0 -4.018,-1.798 -4.018,-4.016 0,-2.218 1.799,-4.016 4.018,-4.016 2.216,0 4.015,1.797 4.015,4.016 0,2.219 -1.799,4.016 -4.015,4.016 z m 6.859,-9.734 c -1.542,0 -2.792,-1.25 -2.792,-2.792 0,-1.542 1.251,-2.792 2.792,-2.792 1.541,0 2.792,1.25 2.792,2.792 10e-4,1.542 -1.251,2.792 -2.792,2.792 z"
         id="path3029"
         inkscape:connector-curvature="0" /></g></g><path
     style="fill:#ff6600;fill-opacity:1;stroke:none"
     d="m 43.527085,43.407388 c -7.140268,0.147116 -13.719563,3.322285 -20.49887,5.204629 -4.514979,1.519676 -9.36617,0.785341 -14.049739,0.774665 -1.315213,0.145395 -2.898414,-0.701819 -4.025849,0.08195 -0.700706,1.299313 -0.08995,2.979407 -0.276315,4.424351 0.100926,4.596042 -0.06759,9.22471 0.201717,13.800357 3.879936,8.325179 10.739593,14.726332 17.057001,21.222129 3.517166,3.500458 7.014402,7.044804 10.793667,10.248847 1.493045,0.338749 2.295087,-1.431837 3.379101,-2.132905 7.956317,-7.689406 16.167997,-15.28444 22.607563,-24.332356 1.235049,-1.937655 2.608868,-4.031934 2.986603,-6.332915 -0.007,-5.272066 0.195482,-10.57992 0.05949,-15.829952 -0.750618,-1.332406 -2.38811,-2.034446 -3.593311,-2.966487 C 53.82071,44.82752 48.730584,43.024048 43.527085,43.407388 z M 24.007992,55.331477 c 1.135616,0.07658 2.163861,1.208558 1.744141,2.390376 -0.303927,1.79879 -3.41464,1.672402 -3.488282,-0.215411 -0.384415,-1.110233 0.739373,-2.100878 1.744141,-2.174965 z m -6.941821,7.303156 c 2.360824,-0.167879 3.979746,2.784086 2.675276,4.725164 -1.174652,2.184606 -4.856498,1.722376 -5.53122,-0.667082 -0.681633,-1.871478 0.914699,-3.97847 2.855944,-4.058082 z"
     id="path3825"
     inkscape:connector-curvature="0"
     inkscape:export-filename="C:\Users\andrew\Documents\McBrew\UI\GUIresources\ferm_plus_therm.png"
     inkscape:export-xdpi="600"
     inkscape:export-ydpi="600" /><g
     id="g3043"
     transform="translate(-86.320759,9.8133533)"
     inkscape:export-filename="C:\Users\andrew\Documents\McBrew\UI\GUIresources\ferm_plus_therm.png"
     inkscape:export-xdpi="600"
     inkscape:export-ydpi="600"><g
       transform="translate(36.905648,-57.909375)"
       id="g3034"><g
         style="fill-rule:evenodd"
         id="g3024"
         transform="matrix(0.01706395,0,0,0.01706395,88.502634,48.09602)"><g
           id="Layer_x0020_1">
  <metadata
   id="CorelCorpID_0Corel-Layer" />
  <path
   id="path3017"
   d="m 913,2981 c 182,105 304,302 304,527 0,336 -273,609 -609,609 -336,0 -609,-273 -609,-609 0,-225 122,-422 304,-527 L 303,304 C 303,137 440,0 607,0 l 0,0 c 167,0 304,137 304,304 l 0,556 209,0 0,28 0,11 0,39 -209,0 0,492 209,0 0,28 0,11 0,39 -209,0 0,492 209,0 0,28 0,11 0,39 -209,0 0,492 209,0 0,28 0,11 0,39 -209,0 0,336 z m -187,113 0,-1257 -236,0 0,1257 c -181,51 -313,217 -313,414 0,238 193,431 431,431 238,0 431,-193 431,-431 0,-197 -132,-363 -313,-414 z m 77,-50 0,-2740 C 803,197 715,109 608,109 501,109 413,197 413,304 l 0,2740 -55,32 c -154,89 -250,254 -250,433 0,276 224,499 499,499 276,0 499,-224 499,-499 0,-179 -95,-343 -250,-433 l -55,-32 z"
   class="fil0"
   inkscape:connector-curvature="0"
   style="fill:#000000" />
 </g></g><path
         style="fill:#ff0000;fill-opacity:1;stroke:none"
         d="m 96.640951,79.127916 c -0.22674,7.187287 -0.03198,14.440014 -0.09728,21.652364 -5.515699,1.56032 -7.2073,9.88611 -2.279197,13.17487 4.720786,4.09788 13.008126,-0.49348 12.090856,-6.64302 -0.32749,-2.94752 -2.32402,-5.72241 -5.25327,-6.53185 -0.13263,-7.234377 0.26242,-14.589462 -0.19456,-21.749646 -1.361197,-0.107641 -2.955723,-0.277658 -4.266547,0.09728 z"
         id="path3032"
         inkscape:connector-curvature="0" /></g><path
       inkscape:connector-curvature="0"
       id="path3041"
       d="m 135.55093,-8.3559635 c -2.10251,0.137645 -3.7799,2.2231904 -3.46063,4.3140064 -0.17589,15.3146391 -0.0725,30.6310271 -0.10168,45.9464091 -4.01148,1.986379 -6.31464,7.12881 -4.54385,11.350052 1.39306,3.625 5.43135,6.243427 9.34436,5.631081 3.87347,-0.312318 7.13382,-3.592115 7.76828,-7.36537 0.37373,-2.773093 -0.38547,-5.76795 -2.48133,-7.709316 -0.72495,-0.739311 -1.56331,-1.365624 -2.47641,-1.857311 -0.0255,-15.803529 -0.0534,-31.607053 -0.0835,-47.410574 -0.56347,-1.6541445 -2.16627,-2.9964235 -3.96521,-2.8989775 z M 135.2856,21.493682 c 0.69077,0.01409 1.42499,-0.03768 2.08824,0.06388 0.46898,6.705421 0.0335,13.488932 0.2292,20.218604 -0.13504,0.991965 0.35141,1.750281 1.34313,1.956121 3.66502,1.79505 5.1788,7.10589 2.59434,10.377358 -2.07757,2.601659 -6.03689,4.010492 -9.06482,2.261585 -2.41066,-1.233137 -4.01142,-3.859865 -3.73491,-6.585484 0.17621,-2.628789 1.79584,-5.366939 4.34847,-6.328617 1.31901,-0.06937 0.71267,-1.631635 0.84513,-2.486242 0,-6.46292 0,-12.925838 0,-19.388758 0.437,-0.09407 0.90506,-0.07009 1.35122,-0.08844 z"
       style="fill:#ffffff;fill-opacity:1;stroke:none" /></g></svg>