<?xml version="1.0" encoding="UTF-8" standalone="no"?>
<svg
   xmlns:dc="http://purl.org/dc/elements/1.1/"
   xmlns:cc="http://creativecommons.org/ns#"
   xmlns:rdf="http://www.w3.org/1999/02/22-rdf-syntax-ns#"
   xmlns:svg="http://www.w3.org/2000/svg"
   xmlns="http://www.w3.org/2000/svg"
   xmlns:sodipodi="http://sodipodi.sourceforge.net/DTD/sodipodi-0.dtd"
   xmlns:inkscape="http://www.inkscape.org/namespaces/inkscape"
   version="1.1"
   x="0px"
   y="0px"
   viewBox="0 0 98.088666 98.088666"
   enable-background="new 0 0 100 100"
   xml:space="preserve"
   id="svg3013"
   inkscape:version="0.48.5 r10040"
   width="100%"
   height="100%"
   sodipodi:docname="ferm_square.svg"><metadata
     id="metadata3039"><rdf:RDF><cc:Work
         rdf:about=""><dc:format>image/svg+xml</dc:format><dc:type
           rdf:resource="http://purl.org/dc/dcmitype/StillImage" /><dc:title></dc:title></cc:Work></rdf:RDF></metadata><defs
     id="defs3037" /><sodipodi:namedview
     pagecolor="#ffffff"
     bordercolor="#666666"
     borderopacity="1"
     objecttolerance="10"
     gridtolerance="10"
     guidetolerance="10"
     inkscape:pageopacity="0"
     inkscape:pageshadow="2"
     inkscape:window-width="1920"
     inkscape:window-height="1001"
     id="namedview3035"
     showgrid="false"
     inkscape:zoom="4.4971991"
     inkscape:cx="41.276989"
     inkscape:cy="43.119707"
     inkscape:window-x="-9"
     inkscape:window-y="-9"
     inkscape:window-maximized="1"
     inkscape:current-layer="svg3013"
     fit-margin-top="0"
     fit-margin-left="0"
     fit-margin-right="0"
     fit-margin-bottom="0"
     inkscape:showpageshadow="false"
     showborder="false" /><g
     id="g3768"
     transform="translate(15.868834,2.0448326)"><g
       inkscape:export-ydpi="600"
       inkscape:export-xdpi="600"
       inkscape:export-filename="C:\Users\andrew\Documents\McBrew\UI\GUIresources\ferm.png"
       transform="translate(-16.824,-2.001)"
       id="g3015"><g
         id="g3017"><path
           inkscape:connector-curvature="0"
           id="path3019"
           d="m 26.142,91.98 c 0,2.219 -1.799,4.02 -4.019,4.02 l 0,0 c -2.219,0 -4.019,-1.801 -4.019,-4.02 V 55.97 l 4.019,6.186 v -1.869 l 4.019,6.618 V 91.98 z" /><path
           inkscape:connector-curvature="0"
           id="path3021"
           d="m 81.896,91.98 c 0,2.219 -1.798,4.02 -4.018,4.02 l 0,0 c -2.22,0 -4.019,-1.801 -4.019,-4.02 V 66.76 l 4.019,-4.892 0,0 4.018,-7.926 V 91.98 z" /></g><g
         id="g3023"><path
           inkscape:connector-curvature="0"
           id="path3025"
           d="m 50.105,4.001 c 7.579,0 15.158,1.065 15.158,3.197 v 3.928 c 9.11,1.176 15.913,3.495 15.913,6.958 V 51.958 C 81.176,61.014 50,88.73 50,88.73 50,88.73 18.824,61.014 18.824,51.958 V 18.084 c 0,-3.49 6.909,-5.817 16.123,-6.984 V 7.198 c 0,-2.132 7.579,-3.197 15.158,-3.197 m 0,-2 c -11.385,0 -17.158,1.748 -17.158,5.197 v 2.157 c -10.701,1.571 -16.123,4.505 -16.123,8.73 v 33.874 c 0,1.6 0,6.469 16.15,23.172 7.757,8.023 15.619,15.025 15.697,15.096 L 50,91.406 51.329,90.225 c 0.078,-0.07 7.939,-7.072 15.696,-15.096 16.15,-16.703 16.15,-21.572 16.15,-23.172 V 18.084 c 0,-4.196 -5.352,-7.12 -15.913,-8.7 V 7.198 C 67.263,3.749 61.49,2.001 50.105,2.001 l 0,0 z" /></g><g
         id="g3027"><path
           inkscape:connector-curvature="0"
           id="path3029"
           d="m 22.375,34.005 v 15.894 c 0,8.024 27.625,32.584 27.625,32.584 0,0 27.625,-24.561 27.625,-32.585 V 34.67 c 0,0 -6.373,-6.462 -16.377,-6.462 -10.004,0 -19.941,6.354 -27.389,6.354 -7.448,0 -11.484,-0.557 -11.484,-0.557 z m 11.601,19.742 c -2.219,0 -4.018,-1.798 -4.018,-4.016 0,-2.218 1.799,-4.016 4.018,-4.016 2.216,0 4.015,1.797 4.015,4.016 0,2.219 -1.799,4.016 -4.015,4.016 z m 6.859,-9.734 c -1.542,0 -2.792,-1.25 -2.792,-2.792 0,-1.542 1.251,-2.792 2.792,-2.792 1.541,0 2.792,1.25 2.792,2.792 10e-4,1.542 -1.251,2.792 -2.792,2.792 z" /></g></g><path
       inkscape:export-ydpi="600"
       inkscape:export-xdpi="600"
       inkscape:export-filename="C:\Users\andrew\Documents\McBrew\UI\GUIresources\ferm.png"
       inkscape:connector-curvature="0"
       id="path3825"
       d="m 43.527085,25.417934 c -7.140268,0.147116 -13.719563,3.322285 -20.49887,5.204629 -4.514979,1.519676 -9.36617,0.785341 -14.049739,0.774665 -1.315213,0.145395 -2.898414,-0.701819 -4.025849,0.08195 -0.700706,1.299313 -0.08995,2.979407 -0.276315,4.424351 0.100926,4.596042 -0.06759,9.22471 0.201717,13.800357 3.879936,8.325179 10.739593,14.726332 17.057001,21.222129 3.517166,3.500458 7.014402,7.044804 10.793667,10.248847 1.493045,0.338749 2.295087,-1.431837 3.379101,-2.132905 7.956317,-7.689406 16.167997,-15.28444 22.607563,-24.332356 1.235049,-1.937655 2.608868,-4.031934 2.986603,-6.332915 -0.007,-5.272066 0.195482,-10.57992 0.05949,-15.829952 -0.750618,-1.332406 -2.38811,-2.034446 -3.593311,-2.966487 C 53.82071,26.838066 48.730584,25.034594 43.527085,25.417934 z M 24.007992,37.342023 c 1.135616,0.07658 2.163861,1.208558 1.744141,2.390376 -0.303927,1.79879 -3.41464,1.672402 -3.488282,-0.215411 -0.384415,-1.110233 0.739373,-2.100878 1.744141,-2.174965 z m -6.941821,7.303156 c 2.360824,-0.167879 3.979746,2.784086 2.675276,4.725164 -1.174652,2.184606 -4.856498,1.722376 -5.53122,-0.667082 -0.681633,-1.871478 0.914699,-3.97847 2.855944,-4.058082 z"
       style="fill:#ff6600;fill-opacity:1;stroke:none" /></g><rect
     style="fill:none;stroke:none"
     id="rect3785"
     width="98.088669"
     height="98.088669"
     x="0"
     y="-1.7446156e-006" /><path
     style="fill:#ffffff;fill-opacity:1;stroke:none"
     d="m 48.196574,4.1212315 c -4.410483,0.1802599 -9.051419,0.1307461 -13.160969,1.9109116 -1.7465,1.0355957 -0.926499,3.5133944 -1.216035,5.1698849 -4.549549,0.632272 -9.259179,1.396003 -13.320791,3.585565 -1.061731,0.852573 -2.82219,1.68096 -2.470674,3.300658 -0.03714,11.645898 -0.08893,23.293643 -0.10732,34.93842 2.307436,6.241122 7.016931,11.16617 11.277786,16.134812 6.078524,6.635881 12.479884,13.008185 19.248159,18.935628 0.958239,1.006833 1.807727,-0.650807 2.535838,-1.108408 8.76631,-8.284596 17.619209,-16.621774 24.937733,-26.245031 1.753367,-2.503456 3.593537,-5.165446 4.233664,-8.17562 -0.01393,-11.821149 0.0278,-23.650467 -0.02085,-35.466519 C 77.298588,13.460653 72.420312,12.789771 68.202082,11.799622 66.964694,11.576108 65.724395,11.366707 64.477541,11.202028 64.192851,9.5880141 64.948408,7.3299173 63.46997,6.1641697 59.674294,4.3145613 55.251528,4.3754141 51.108324,4.1433088 50.137938,4.1167318 49.167261,4.1084848 48.196574,4.1212318 z M 60.377767,27.635867 c 3.023591,-0.189613 6.075282,0.229839 8.800182,1.574225 2.887455,1.356937 6.013374,2.737261 8.168713,5.089645 0.80001,1.829968 0.193423,4.017803 0.349456,5.975755 -0.157343,3.834278 0.03325,7.712783 -0.523175,11.514298 -1.716408,4.479141 -5.043386,8.140678 -8.039726,11.840703 -5.946606,6.542466 -12.224845,12.901302 -18.780903,18.832998 -0.553954,0.586605 -1.60053,1.115537 -2.21133,0.290016 C 41.480101,76.802096 35.098297,70.394752 29.051413,63.797395 25.781128,60.060711 22.729918,55.988544 20.672498,51.497942 c 0.09812,-5.937943 -0.21043,-11.900412 0.194566,-17.823594 0.336222,-0.664229 1.522845,-0.144619 2.105477,-0.305746 4.712651,0.154559 9.494382,0.444268 14.168522,-0.27759 6.322121,-1.57565 12.36349,-4.261853 18.817287,-5.281425 1.466439,-0.163473 2.94558,-0.173818 4.419417,-0.17372 z"
     id="path3789"
     inkscape:connector-curvature="0" /><path
     style="fill:#ffffff;fill-opacity:1;stroke:none"
     d="m 32.80505,46.744983 c -2.37646,0.138628 -3.93397,3.563589 -1.883117,5.19768 1.238453,1.117596 3.357495,1.26225 4.384674,-0.229309 1.755482,-1.939254 0.124279,-5.251725 -2.501557,-4.968371 z"
     id="path3791"
     inkscape:connector-curvature="0" /><path
     style="fill:#ffffff;fill-opacity:1;stroke:none"
     d="m 39.5801,39.504366 c -1.765416,0.187485 -1.933711,3.043332 -0.194565,3.432692 1.544545,0.652913 3.08916,-1.675113 1.771936,-2.793406 C 40.764387,39.699696 40.18001,39.41746 39.5801,39.504366 z"
     id="path3793"
     inkscape:connector-curvature="0" /></svg>